<svg width="64" height="64" viewBox="0 0 64 64" fill="none" xmlns="http://www.w3.org/2000/svg">
<g clip-path="url(#clip0_9_72)">
<rect x="16.7502" y="0.270844" width="49.7854" height="49.7854" rx="2" transform="rotate(19.33 16.7502 0.270844)" fill="#F6BC00"/>
<path d="M7.65015 42.4847C7.45198 42.4152 7.23329 42.3438 6.99408 42.2704C6.75155 42.2066 6.51846 42.146 6.2948 42.0887C6.08059 42.0348 5.90577 41.9894 5.77035 41.9525C5.63162 41.925 5.56226 41.9113 5.56226 41.9113L5.98904 41.0118C6.42128 41.0787 6.73465 41.0614 6.92916 40.9601C7.12697 40.8493 7.29043 40.6099 7.41952 40.2419L9.38 34.6984C9.47269 34.4341 9.50421 34.2385 9.47456 34.1116C9.45436 33.9879 9.35461 33.8946 9.17532 33.8318C9.09039 33.802 8.98494 33.7703 8.85896 33.7367C8.74241 33.7064 8.68414 33.6912 8.68414 33.6912L8.62478 33.5433L9.05008 32.7387C9.05008 32.7387 9.12391 32.7699 9.27158 32.8323C9.42256 32.8852 9.60657 32.9498 9.8236 33.0259C10.0501 33.1054 10.2655 33.1862 10.4697 33.2685C10.6868 33.3446 10.8613 33.4058 10.9935 33.4522C11.0878 33.4853 11.2199 33.5316 11.3898 33.5912C11.5724 33.6447 11.7628 33.7061 11.9609 33.7756C12.1624 33.8357 12.3544 33.8925 12.537 33.9459C12.7196 33.9994 12.8675 34.046 12.9808 34.0857C13.0973 34.116 13.1556 34.1311 13.1556 34.1311C14.1275 34.4721 14.8021 34.9206 15.1792 35.4768C15.5597 36.0236 15.6242 36.6556 15.3726 37.3727C15.2005 37.8634 14.91 38.2384 14.5011 38.4977C14.0922 38.7569 13.6199 38.9251 13.0842 39.0021C13.438 39.2322 13.7281 39.4929 13.9544 39.7842C14.1902 40.0789 14.348 40.3992 14.428 40.7452C14.5113 41.0817 14.4868 41.4387 14.3544 41.8162C14.1558 42.3823 13.8263 42.8231 13.3659 43.1385C12.915 43.4572 12.3745 43.6385 11.7445 43.6825C11.1144 43.7264 10.4314 43.6193 9.69535 43.3611C9.56324 43.3147 9.40613 43.249 9.22403 43.164C9.04805 43.0916 8.86429 43.0113 8.67275 42.9229C8.49064 42.8378 8.30854 42.7527 8.12643 42.6677C7.95045 42.5953 7.79169 42.5343 7.65015 42.4847ZM9.99369 38.84L9.20224 40.915C9.09631 41.2169 9.12398 41.4704 9.28524 41.6753C9.4498 41.8708 9.77271 42.0529 10.254 42.2218C10.7258 42.3873 11.1321 42.392 11.4729 42.2361C11.8265 42.074 12.0828 41.7664 12.2417 41.3135C12.523 40.5114 12.2141 39.8361 11.315 39.2876L9.99369 38.84ZM10.454 37.6185C10.454 37.6185 10.5089 37.643 10.6189 37.6922C10.7288 37.7414 10.859 37.8082 11.0095 37.8928C11.1633 37.9679 11.3093 38.0351 11.4475 38.0941C11.5952 38.1565 11.7021 38.1993 11.7681 38.2225C11.7681 38.2225 11.8236 38.2155 11.9345 38.2014C12.0548 38.1906 12.2009 38.1518 12.3727 38.0849C12.5479 38.0086 12.7157 37.8926 12.8763 37.737C13.0496 37.5752 13.1892 37.3433 13.2951 37.0414C13.464 36.5601 13.4277 36.15 13.1863 35.811C12.9449 35.472 12.4845 35.1833 11.8051 34.945C11.7107 34.9119 11.638 34.9076 11.5871 34.9321C11.5488 34.9505 11.5051 35.0146 11.456 35.1245C11.3477 35.3727 11.2279 35.6539 11.0965 35.9681C10.9778 36.2762 10.8624 36.5748 10.7504 36.8641C10.6383 37.1533 10.5395 37.4047 10.454 37.6185ZM14.7849 44.0814C15.0746 44.1618 15.2898 44.1525 15.4305 44.0535C15.5806 43.9578 15.7203 43.7259 15.8494 43.3579L16.8374 40.5412C16.95 40.2204 16.9836 39.9884 16.9384 39.8454C16.8965 39.6929 16.7576 39.5753 16.5217 39.4926C16.4651 39.4727 16.4021 39.4559 16.3328 39.4422C16.2761 39.4223 16.2478 39.4124 16.2478 39.4124L16.2118 39.2885L16.545 38.6106C16.9739 38.6868 17.3951 38.7551 17.8084 38.8153C18.2218 38.8755 18.5642 38.9268 18.8355 38.9689C19.1196 39.005 19.2616 39.023 19.2616 39.023L19.3443 39.1951C19.3443 39.1951 19.3053 39.2609 19.2274 39.3925C19.1621 39.518 19.0837 39.6813 18.992 39.8822C18.9036 40.0738 18.8183 40.2717 18.736 40.476L18.8011 40.5624C19.2586 40.2248 19.705 39.9946 20.1402 39.8717C20.5754 39.7488 20.9534 39.7437 21.2743 39.8562C21.4252 39.9092 21.5399 39.96 21.6182 40.0087C21.7093 40.0512 21.7548 40.0725 21.7548 40.0725L21.7717 40.2056C21.7717 40.2056 21.7294 40.2808 21.6448 40.4313C21.573 40.5756 21.4735 40.7686 21.3464 41.0101C21.2287 41.255 21.098 41.5218 20.9544 41.8105C20.8201 42.1025 20.6986 42.3884 20.5899 42.6682L19.6642 42.4071C19.823 41.9541 19.899 41.6469 19.892 41.4855C19.8978 41.318 19.8205 41.2061 19.6601 41.1498C19.5091 41.0969 19.3288 41.0972 19.1192 41.1509C18.9097 41.2045 18.6946 41.304 18.4741 41.4492C18.4741 41.4492 18.4396 41.5324 18.3706 41.699C18.3049 41.8561 18.2179 42.0587 18.1097 42.3069C18.0109 42.5583 17.9104 42.8145 17.8083 43.0754C17.7062 43.3363 17.6156 43.5642 17.5367 43.7591C17.4578 43.9539 17.4083 44.0796 17.3885 44.1363C17.3024 44.3816 17.2806 44.5647 17.323 44.6855C17.3748 44.8097 17.5045 44.9082 17.7121 44.981C17.8442 45.0274 17.9969 45.0756 18.17 45.1257C18.3465 45.1664 18.4347 45.1868 18.4347 45.1868L18.4474 45.2866L17.964 46.1662C17.964 46.1662 17.9043 46.14 17.785 46.0875C17.6656 46.035 17.5085 45.9693 17.3136 45.8904C17.1249 45.8242 16.9284 45.7499 16.7241 45.6677C16.5165 45.5949 16.3278 45.5287 16.1579 45.4691C15.8749 45.3698 15.5948 45.2768 15.3179 45.1903C15.0409 45.1037 14.8111 45.0337 14.6285 44.9803C14.4554 44.9301 14.3688 44.9051 14.3688 44.9051L14.7849 44.0814ZM20.026 47.0008L20.452 46.1488C20.7422 46.1976 20.9735 46.1727 21.1458 46.0742C21.3276 45.979 21.4631 45.804 21.5525 45.5492L22.625 42.4919C22.7309 42.1899 22.7613 41.9674 22.716 41.8244C22.6708 41.6814 22.535 41.5702 22.3085 41.4907C22.2519 41.4708 22.1778 41.4555 22.0863 41.4445C22.0075 41.4275 21.9681 41.419 21.9681 41.419L22.336 40.642C22.6734 40.7073 23.0061 40.771 23.334 40.8331C23.6747 40.889 23.9807 40.9381 24.2521 40.9803C24.5361 41.0163 24.7586 41.0467 24.9195 41.0713C25.0899 41.0993 25.1751 41.1133 25.1751 41.1133L25.223 41.3844C25.1394 41.4717 25.0211 41.658 24.868 41.9434C24.7276 42.2227 24.5655 42.5791 24.3816 43.0127C24.201 43.4368 24.002 43.9287 23.7845 44.4883C23.5704 45.0384 23.354 45.6248 23.1356 46.2476C23.0594 46.4647 23.0362 46.6367 23.0658 46.7636C23.0988 46.8812 23.1955 46.9681 23.3559 47.0243C23.4314 47.0508 23.518 47.0759 23.6156 47.0996C23.7228 47.1265 23.7763 47.14 23.7763 47.14L23.7939 47.2257L23.3495 48.0395C23.3495 48.0395 23.2993 48.0165 23.1988 47.9707C23.095 47.9343 22.9598 47.8816 22.7933 47.8125C22.6329 47.7563 22.4647 47.692 22.2887 47.6196C22.1188 47.5601 21.9584 47.5038 21.8074 47.4508C21.581 47.3714 21.3259 47.2978 21.0424 47.2301C20.7682 47.1658 20.5287 47.1083 20.324 47.0576C20.1253 47.0197 20.026 47.0008 20.026 47.0008ZM24.4556 39.4938C24.1347 39.3813 23.9208 39.2056 23.8139 38.9667C23.7196 38.7217 23.7238 38.4529 23.8265 38.1604C23.9423 37.8301 24.1404 37.5976 24.4209 37.4628C24.7046 37.3186 25.0116 37.3045 25.3419 37.4203C25.6533 37.5295 25.8561 37.7067 25.9503 37.9517C26.0539 38.2 26.0545 38.4704 25.9518 38.7629C25.836 39.0932 25.6426 39.3274 25.3716 39.4654C25.1006 39.6035 24.7953 39.613 24.4556 39.4938ZM25.758 52.6835C25.2579 52.508 24.8489 52.2692 24.531 51.9669C24.2192 51.6774 24.0125 51.3453 23.9109 50.9705C23.8059 50.6051 23.8245 50.2196 23.9669 49.8138C24.1231 49.7309 24.3618 49.6397 24.6828 49.5404C25.0132 49.4443 25.3672 49.3566 25.7448 49.2771L25.7795 49.178C25.3531 48.9436 25.0602 48.6607 24.9009 48.3293C24.7449 47.9885 24.7207 47.6196 24.8281 47.2228C25.0575 47.1126 25.2947 47.0103 25.5397 46.9161C25.7941 46.8252 26.0547 46.747 26.3214 46.6816L26.4207 46.3985L27.2839 47.0193C27.03 47.0785 26.8329 47.1419 26.6927 47.2093C26.5619 47.28 26.4783 47.3672 26.4419 47.471C26.3823 47.6409 26.4525 47.8033 26.6525 47.9582C26.8619 48.1164 27.1393 48.2773 27.4847 48.4408C27.8394 48.6077 28.2114 48.7859 28.6006 48.9754C28.9898 49.1649 29.3455 49.3744 29.6677 49.604C29.9899 49.8336 30.2278 50.0919 30.3814 50.379C30.5445 50.6693 30.5615 50.9985 30.4324 51.3665C30.3166 51.6968 30.1002 51.9812 29.7834 52.2198C29.4632 52.4678 29.0808 52.6516 28.6362 52.7711C28.1977 52.9034 27.7271 52.9609 27.2245 52.9436C26.7281 52.939 26.2392 52.8523 25.758 52.6835ZM26.6633 51.8247C26.9747 51.9339 27.2696 51.9844 27.548 51.9761C27.8232 51.9772 28.0596 51.9224 28.2574 51.8117C28.4647 51.7042 28.6031 51.5514 28.6726 51.3532C28.7256 51.2023 28.7072 51.0581 28.6177 50.9207C28.5342 50.796 28.3359 50.6364 28.0227 50.4417C27.7094 50.2471 27.2327 49.9898 26.5926 49.6698C26.3697 49.7612 26.1797 49.88 26.0225 50.0262C25.8652 50.1724 25.7568 50.3304 25.6972 50.5003C25.6012 50.7739 25.6352 51.0243 25.7993 51.2514C25.9695 51.4913 26.2575 51.6824 26.6633 51.8247ZM28.4132 46.7001C28.7529 46.8192 29.0538 46.7923 29.3158 46.6193C29.5873 46.4496 29.8008 46.143 29.9564 45.6995C30.1285 45.2088 30.1541 44.7886 30.033 44.4388C29.912 44.089 29.6627 43.8479 29.2853 43.7155C28.9456 43.5963 28.6447 43.6233 28.3827 43.7963C28.1206 43.9693 27.9102 44.2823 27.7513 44.7352C27.5825 45.2165 27.5539 45.6303 27.6655 45.9768C27.7865 46.3266 28.0358 46.5677 28.4132 46.7001ZM27.8307 47.5449C27.2929 47.3562 26.8541 47.0963 26.5146 46.7653C26.1783 46.4248 25.9566 46.045 25.8493 45.6258C25.7547 45.2005 25.7869 44.7614 25.9457 44.3085C26.1212 43.8084 26.4058 43.4048 26.7996 43.0979C27.1934 42.7909 27.6518 42.602 28.1747 42.5311C28.6977 42.4602 29.2375 42.5224 29.7943 42.7177C30.0962 42.8236 30.3522 42.9399 30.5621 43.0665C30.772 43.1932 30.9855 43.2945 31.2025 43.3707C31.3979 43.418 31.6897 43.4621 32.0781 43.5029C32.4665 43.5438 32.8897 43.5757 33.348 43.5987L33.413 43.6851L32.8467 44.7104C32.6608 44.6664 32.4702 44.6207 32.2748 44.5734C32.0828 44.5167 31.9144 44.4682 31.7695 44.4279L31.6831 44.493C31.9215 45.0217 31.9464 45.555 31.7577 46.0929C31.5889 46.5742 31.3062 46.9572 30.9096 47.2419C30.513 47.5267 30.0437 47.7012 29.5019 47.7655C28.9728 47.8237 28.4158 47.7501 27.8307 47.5449ZM31.7028 50C31.9675 50.0611 32.1653 50.0562 32.2961 49.9855C32.4301 49.9054 32.5435 49.7332 32.6362 49.469L35.0493 42.59C35.1552 42.288 35.1855 42.0655 35.1403 41.9225C35.0951 41.7795 34.9593 41.6682 34.7328 41.5888L34.4073 41.4746L34.3705 41.3981L34.7136 40.6919C35.0005 40.7501 35.3221 40.8152 35.6784 40.8872C36.0474 40.9531 36.4116 41.0173 36.7712 41.0798C37.1402 41.1457 37.4604 41.1997 37.7317 41.2419L37.7364 41.5456C37.6567 41.5918 37.5173 41.8078 37.3183 42.1937C37.1288 42.5829 36.8944 43.1153 36.615 43.7909C36.3389 44.4571 36.0245 45.2476 35.6718 46.1624C35.8503 46.0767 36.0493 45.9928 36.2688 45.9108C36.4977 45.8322 36.7233 45.763 36.9457 45.7032C37.1774 45.6467 37.382 45.6072 37.5595 45.5847C37.7464 45.5655 37.8917 45.5741 37.9955 45.6105C38.6749 45.8488 39.1424 46.1929 39.3979 46.6429C39.6566 47.0833 39.6834 47.5961 39.4782 48.1812C39.4285 48.3227 39.3383 48.5348 39.2073 48.8174C39.0764 49.1 38.9308 49.4092 38.7706 49.7451C38.6198 50.0843 38.4757 50.4047 38.3381 50.7061C38.2006 51.0076 38.1004 51.248 38.0375 51.4273C37.9547 51.6632 37.9265 51.8493 37.9529 51.9857C37.9825 52.1127 38.0823 52.206 38.2521 52.2656C38.2993 52.2821 38.3653 52.3053 38.4503 52.3351C38.5479 52.3587 38.6267 52.3758 38.6867 52.3862L38.6951 52.4528L38.2649 53.2715C38.0511 53.1859 37.7949 53.0855 37.4963 52.9701C37.1976 52.8547 36.9492 52.7623 36.7511 52.6928C36.6378 52.6531 36.4899 52.6065 36.3073 52.553C36.1247 52.4996 35.9327 52.4428 35.7312 52.3827C35.5264 52.3321 35.3294 52.2895 35.1402 52.2549L35.5188 51.4022C35.7713 51.4377 35.9709 51.4124 36.1178 51.3261C36.2679 51.2304 36.3827 51.0693 36.4621 50.8429L37.3777 48.414C37.5328 48.0021 37.5649 47.669 37.474 47.4145C37.3958 47.154 37.201 46.9691 36.8896 46.8598C36.7198 46.8003 36.4923 46.7841 36.2073 46.8112C35.9349 46.8323 35.6541 46.8927 35.3647 46.9926C35.2593 47.2629 35.1506 47.5427 35.0385 47.8319C34.9359 48.1244 34.8201 48.4547 34.691 48.8227C34.5619 49.1907 34.4096 49.6248 34.2342 50.1249C34.1514 50.3608 34.1265 50.5376 34.1595 50.6551C34.1924 50.7726 34.2844 50.8579 34.4354 50.9108C34.4826 50.9274 34.5392 50.9472 34.6052 50.9704C34.684 50.9875 34.7517 51.0059 34.8084 51.0258L34.8118 51.1065L34.3724 51.9061C34.1681 51.8238 33.9166 51.725 33.618 51.6097C33.3193 51.4943 33.0662 51.4002 32.8586 51.3274C32.651 51.2546 32.3946 51.1699 32.0893 51.0734C31.7935 50.9803 31.5212 50.8953 31.2726 50.8187L31.7028 50ZM41.5885 54.5804C40.9185 54.3454 40.4775 54.0317 40.2654 53.6394C40.0533 53.2471 40.0515 52.7537 40.26 52.1592L41.3673 49.0028C41.4699 48.7103 41.4875 48.4939 41.4201 48.3537C41.3527 48.2135 41.1697 48.0857 40.871 47.9703L40.7642 47.8216L41.1066 47.1628C41.4582 47.1272 41.8054 47.0741 42.148 47.0035C42.494 46.9235 42.802 46.8461 43.072 46.7713C43.3547 46.6903 43.5787 46.6258 43.7439 46.5778C43.9125 46.5203 43.9967 46.4916 43.9967 46.4916L44.3235 46.8288C44.3235 46.8288 44.2666 46.9307 44.1527 47.1345C44.0516 47.3321 43.9143 47.6178 43.7408 47.9914L45.4259 48.5349L45.4577 48.6255L44.9835 49.5242L43.3282 48.8958C43.1576 49.2917 42.9718 49.7458 42.7708 50.2581C42.5827 50.7644 42.3793 51.3289 42.1609 51.9517C42.0185 52.3575 41.9867 52.6748 42.0654 52.9038C42.144 53.1327 42.3437 53.3034 42.6646 53.416C42.8722 53.4888 43.0772 53.5236 43.2797 53.5205C43.4821 53.5173 43.5834 53.5157 43.5834 53.5157L43.6085 54.0332C43.6085 54.0332 43.5226 54.0667 43.3507 54.1336C43.1883 54.2038 42.9863 54.2813 42.7446 54.366C42.5157 54.4447 42.2917 54.5092 42.0727 54.5595C41.8537 54.6099 41.6923 54.6168 41.5885 54.5804ZM46.0721 52.4494L45.9151 52.1718L47.7862 45.9769L48.0404 45.7959L49.9848 46.1441L50.1268 46.4642L47.0043 52.6016L46.0721 52.4494ZM45.1325 55.8077C44.7928 55.6886 44.568 55.4984 44.4583 55.2374C44.3579 54.9796 44.3607 54.6998 44.4666 54.3978C44.5858 54.0581 44.7809 53.8192 45.0519 53.6811C45.3356 53.5369 45.652 53.5261 46.0012 53.6485C46.3314 53.7644 46.5515 53.9528 46.6612 54.2139C46.7743 54.4655 46.7763 54.747 46.667 55.0584C46.5512 55.3887 46.3514 55.6259 46.0676 55.7701C45.7933 55.9177 45.4816 55.9302 45.1325 55.8077Z" fill="white"/>
<path d="M50.0768 26.9287C49.2357 27.3252 48.2177 26.9681 47.8086 26.133V26.133C47.6162 25.7404 47.2752 25.4352 46.8626 25.2905V25.2905C45.9949 24.9861 45.5382 24.036 45.8426 23.1683V23.1683C45.9873 22.7557 45.9621 22.2987 45.7756 21.9032V21.9032C45.3791 21.0621 45.7363 20.0441 46.5713 19.635V19.635C46.964 19.4426 47.2691 19.1016 47.4138 18.689V18.689C47.7182 17.8213 48.6684 17.3646 49.5361 17.669V17.669C49.9487 17.8137 50.4056 17.7885 50.8011 17.6021V17.6021C51.6422 17.2056 52.6602 17.5627 53.0693 18.3977V18.3977C53.2617 18.7904 53.6027 19.0955 54.0153 19.2402V19.2402C54.883 19.5446 55.3397 20.4948 55.0353 21.3625V21.3625C54.8906 21.7751 54.9158 22.232 55.1023 22.6275V22.6275C55.4988 23.4686 55.1417 24.4867 54.3066 24.8958V24.8958C53.914 25.0881 53.6088 25.4292 53.4641 25.8417V25.8417C53.1597 26.7095 52.2095 27.1661 51.3418 26.8617V26.8617C50.9292 26.717 50.4723 26.7423 50.0768 26.9287V26.9287Z" fill="white"/>
<path d="M50.0768 26.9287C49.2357 27.3252 48.2177 26.9681 47.8086 26.133V26.133C47.6162 25.7404 47.2752 25.4352 46.8626 25.2905V25.2905C45.9949 24.9861 45.5382 24.036 45.8426 23.1683V23.1683C45.9873 22.7557 45.9621 22.2987 45.7756 21.9032V21.9032C45.3791 21.0621 45.7363 20.0441 46.5713 19.635V19.635C46.964 19.4426 47.2691 19.1016 47.4138 18.689V18.689C47.7182 17.8213 48.6684 17.3646 49.5361 17.669V17.669C49.9487 17.8137 50.4056 17.7885 50.8011 17.6021V17.6021C51.6422 17.2056 52.6602 17.5627 53.0693 18.3977V18.3977C53.2617 18.7904 53.6027 19.0955 54.0153 19.2402V19.2402C54.883 19.5446 55.3397 20.4948 55.0353 21.3625V21.3625C54.8906 21.7751 54.9158 22.232 55.1023 22.6275V22.6275C55.4988 23.4686 55.1417 24.4867 54.3066 24.8958V24.8958C53.914 25.0881 53.6088 25.4292 53.4641 25.8417V25.8417C53.1597 26.7095 52.2095 27.1661 51.3418 26.8617V26.8617C50.9292 26.717 50.4723 26.7423 50.0768 26.9287V26.9287Z" fill="white"/>
</g>
<defs>
<clipPath id="clip0_9_72">
<rect width="64" height="64" fill="white"/>
</clipPath>
</defs>
</svg>
