<svg width="130" height="130" viewBox="0 0 130 130" fill="none" xmlns="http://www.w3.org/2000/svg">
<path d="M12.5 92.75H64.5H116.5C117.328 92.75 118 93.4216 118 94.25C118 95.0784 117.328 95.75 116.5 95.75H112.5C111.672 95.75 111 96.4216 111 97.25C111 98.0784 111.672 98.75 112.5 98.75H116.5C117.328 98.75 118 99.4216 118 100.25C118 101.078 117.328 101.75 116.5 101.75H106.5C105.672 101.75 105 102.422 105 103.25C105 104.078 105.672 104.75 106.5 104.75H113.5C114.328 104.75 115 105.422 115 106.25C115 107.078 114.328 107.75 113.5 107.75H90.5C89.6716 107.75 89 108.422 89 109.25C89 110.078 89.6716 110.75 90.5 110.75H102.5C103.328 110.75 104 111.422 104 112.25C104 113.078 103.328 113.75 102.5 113.75H79.4861C78.6522 113.75 77.9784 114.43 77.9861 115.264L77.9907 115.755C77.9959 116.306 78.4441 116.75 78.9953 116.75C79.5502 116.75 80 117.2 80 117.755V118.25C80 119.078 79.3284 119.75 78.5 119.75H64.5H50.5C49.6716 119.75 49 119.078 49 118.25V117.755C49 117.2 49.4498 116.75 50.0047 116.75C50.5559 116.75 51.0041 116.306 51.0093 115.755L51.0139 115.264C51.0216 114.43 50.3478 113.75 49.5139 113.75H26.5C25.6716 113.75 25 113.078 25 112.25C25 111.422 25.6716 110.75 26.5 110.75H38.5C39.3284 110.75 40 110.078 40 109.25C40 108.422 39.3284 107.75 38.5 107.75H15.5C14.6716 107.75 14 107.078 14 106.25C14 105.422 14.6716 104.75 15.5 104.75H22.5C23.3284 104.75 24 104.078 24 103.25C24 102.422 23.3284 101.75 22.5 101.75H12.5C11.6716 101.75 11 101.078 11 100.25C11 99.4216 11.6716 98.75 12.5 98.75H16.5C17.3284 98.75 18 98.0784 18 97.25C18 96.4216 17.3284 95.75 16.5 95.75H12.5C11.6716 95.75 11 95.0784 11 94.25C11 93.4216 11.6716 92.75 12.5 92.75Z" fill="url(#paint0_linear_9_56)"/>
<path d="M20.1383 78.3869L33.4037 67.3711C34.9646 66.0749 37.2409 67.6584 36.5683 69.5727L32.7183 80.5304C32.165 82.1052 33.0035 83.8288 34.584 84.3656L41.9183 86.8562C44.0606 87.5837 43.5376 90.75 41.2752 90.75H25C23.8954 90.75 23 89.8546 23 88.75V85.5793C23 84.7833 22.6837 84.0199 22.1206 83.4573L20.0022 81.3402C19.1692 80.5077 19.2323 79.1392 20.1383 78.3869Z" fill="#F6BC00"/>
<path d="M64.2913 23.3828L55.7981 31.8718C55.2356 32.4341 54.4727 32.75 53.6773 32.75H48.2808C47.6302 32.75 47.1528 33.3614 47.3106 33.9925C47.4219 34.4377 47.8219 34.75 48.2808 34.75H49.1621C49.3858 34.75 49.6079 34.7875 49.8191 34.861L71.3155 42.338C72.0399 42.59 72.8445 42.4055 73.3868 41.8632L79.0858 36.1642C80.3457 34.9043 79.4534 32.75 77.6716 32.75H76.3237C75.5286 32.75 74.766 32.4344 74.2035 31.8724L65.705 23.3826C65.3145 22.9925 64.6817 22.9926 64.2913 23.3828Z" fill="#F6BC00"/>
<path d="M35.4477 36.9942L44.5089 41.9367C45.3688 42.4057 45.7625 43.4286 45.4389 44.3532L39.3395 61.7799C39.1264 62.3888 38.6327 62.8575 38.0136 63.0387L23.4492 67.3015C22.2496 67.6526 21.404 66.1364 22.333 65.3003C23.0758 64.6317 23.5 63.6794 23.5 62.68V53.75C23.5 53.4352 23.6482 53.1389 23.9 52.95L26.3 51.15C27.0554 50.5834 27.5 49.6943 27.5 48.75V37.75C27.5 37.1977 27.9477 36.75 28.5 36.75H34.49C34.8246 36.75 35.1539 36.834 35.4477 36.9942Z" fill="#F6BC00"/>
<path d="M93.054 36.9918L82.468 42.7314C80.9427 43.5584 81.122 45.8025 82.7593 46.3769L94.9369 50.6484C96.4995 51.1965 97.3225 52.9071 96.7756 54.4701L93.7486 63.1209C93.3748 64.1892 93.9612 65.3545 95.0418 65.691L106.253 69.1822C108.277 69.8124 109.762 67.2744 108.222 65.8187L107.753 65.3762C106.953 64.6206 106.5 63.5689 106.5 62.4685V53.75C106.5 53.4352 106.352 53.1389 106.1 52.95L103.7 51.15C102.945 50.5834 102.5 49.6943 102.5 48.75V37.75C102.5 37.1977 102.052 36.75 101.5 36.75H94.0073C93.6744 36.75 93.3467 36.8331 93.054 36.9918Z" fill="#F6BC00"/>
<path d="M94.5402 69.052L107.971 80.4526C108.795 81.1514 108.846 82.4041 108.082 83.1677C107.389 83.8607 107 84.8006 107 85.7806V88.75C107 89.8546 106.105 90.75 105 90.75H86.8854C85.5077 90.75 84.5425 89.3897 84.9977 88.0893L91.3583 69.9161C91.8219 68.5913 93.4702 68.1438 94.5402 69.052Z" fill="#F6BC00"/>
<path d="M86.636 55.5251L81.364 53.4749C80.3345 53.0745 79.1755 53.5845 78.7751 54.614L76.7249 59.886C76.3245 60.9155 76.8345 62.0745 77.864 62.4749L83.136 64.5251C84.1655 64.9255 85.3245 64.4155 85.7249 63.386L87.7751 58.114C88.1755 57.0845 87.6655 55.9255 86.636 55.5251Z" fill="white"/>
<path d="M74.9142 31.1642L66.4142 22.6642C65.6332 21.8832 64.3668 21.8832 63.5858 22.6642L55.0858 31.1642C54.7107 31.5393 54.202 31.75 53.6716 31.75H44.3284C43.798 31.75 43.2893 31.9607 42.9142 32.3358L40.0858 35.1642C39.7107 35.5393 39.202 35.75 38.6716 35.75H28.5C27.3954 35.75 26.5 36.6454 26.5 37.75V48.75C26.5 49.3795 26.2036 49.9723 25.7 50.35L23.3 52.15C22.7964 52.5277 22.5 53.1205 22.5 53.75V62.8942C22.5 63.4408 22.2763 63.9635 21.881 64.3409L12.9807 72.8366C12.1686 73.6118 12.1536 74.9036 12.9475 75.6975L21.4142 84.1642C21.7893 84.5393 22 85.048 22 85.5784V88.75C22 89.8546 21.1046 90.75 20 90.75H12.8284C12.298 90.75 11.7893 90.5393 11.4142 90.1642L1.08579 79.8358C0.710714 79.4607 0.5 78.952 0.5 78.4216V70.5513C0.5 70.037 0.698152 69.5424 1.05329 69.1704L10.4467 59.3296C10.8018 58.9576 11 58.463 11 57.9487V49.0784C11 48.548 11.2107 48.0393 11.5858 47.6642L14.4142 44.8358C14.7893 44.4607 15 43.952 15 43.4216V26.3339C15 25.233 15.8898 24.3391 16.9907 24.3339L34.177 24.2538C34.7042 24.2514 35.2091 24.0409 35.5819 23.6681L38.4142 20.8358C38.7893 20.4607 39.298 20.25 39.8284 20.25H49.2C49.7136 20.25 50.2074 20.0525 50.5793 19.6983L59.9207 10.8017C60.2926 10.4475 60.7864 10.25 61.3 10.25H68.7C69.2136 10.25 69.7074 10.4475 70.0793 10.8017L79.4207 19.6983C79.7926 20.0525 80.2864 20.25 80.8 20.25H90.1716C90.702 20.25 91.2107 20.4607 91.5858 20.8358L94.4181 23.6681C94.7909 24.0409 95.2958 24.2514 95.823 24.2538L113.009 24.3339C114.11 24.3391 115 25.233 115 26.3339V43.4216C115 43.952 115.211 44.4607 115.586 44.8358L118.414 47.6642C118.789 48.0393 119 48.548 119 49.0784V57.9487C119 58.463 119.198 58.9576 119.553 59.3296L128.947 69.1704C129.302 69.5424 129.5 70.037 129.5 70.5513V78.4216C129.5 78.952 129.289 79.4607 128.914 79.8358L118.586 90.1642C118.211 90.5393 117.702 90.75 117.172 90.75H110C108.895 90.75 108 89.8546 108 88.75V85.5784C108 85.048 108.211 84.5393 108.586 84.1642L117.053 75.6975C117.846 74.9036 117.831 73.6118 117.019 72.8366L108.119 64.3409C107.724 63.9635 107.5 63.4408 107.5 62.8942V53.75C107.5 53.1205 107.204 52.5277 106.7 52.15L104.3 50.35C103.796 49.9723 103.5 49.3795 103.5 48.75V37.75C103.5 36.6454 102.605 35.75 101.5 35.75H91.3284C90.798 35.75 90.2893 35.5393 89.9142 35.1642L87.0858 32.3358C86.7107 31.9607 86.202 31.75 85.6716 31.75H76.3284C75.798 31.75 75.2893 31.5393 74.9142 31.1642Z" fill="#F6BC00"/>
<path d="M94.6136 51.5878L51.3871 36.4125C50.3449 36.0466 49.2034 36.5949 48.8375 37.6371L33.6688 80.8449C33.3005 81.8941 33.8587 83.0423 34.9114 83.4007L56.1866 90.6433C56.3941 90.714 56.6119 90.75 56.8311 90.75H81.5819C82.4314 90.75 83.1882 90.2134 83.4692 89.4118L95.8385 54.1366C96.2039 53.0946 95.6555 51.9535 94.6136 51.5878Z" fill="#F6BC00"/>
<path d="M40.5636 76.96C40.3786 76.8951 40.1745 76.8284 39.9513 76.76C39.7249 76.7004 39.5074 76.6439 39.2986 76.5904C39.0987 76.5401 38.9355 76.4977 38.8091 76.4632C38.6796 76.4376 38.6149 76.4248 38.6149 76.4248L39.0132 75.5853C39.4167 75.6477 39.7091 75.6316 39.8907 75.537C40.0753 75.4336 40.2279 75.2102 40.3483 74.8667L42.1781 69.6927C42.2646 69.4461 42.2941 69.2636 42.2664 69.1451C42.2475 69.0297 42.1544 68.9426 41.9871 68.8839C41.9078 68.8561 41.8094 68.8265 41.6918 68.7952C41.583 68.7669 41.5287 68.7528 41.5287 68.7528L41.4733 68.6146L41.8702 67.8637C41.8702 67.8637 41.9391 67.8928 42.0769 67.9511C42.2179 68.0005 42.3896 68.0607 42.5922 68.1318C42.8035 68.2059 43.0045 68.2814 43.1952 68.3582C43.3978 68.4292 43.5607 68.4864 43.684 68.5296C43.7721 68.5605 43.8954 68.6038 44.0539 68.6594C44.2243 68.7093 44.402 68.7667 44.587 68.8315C44.775 68.8876 44.9543 68.9406 45.1247 68.9905C45.2951 69.0404 45.4332 69.0839 45.5389 69.1209C45.6476 69.1492 45.702 69.1633 45.702 69.1633C46.6092 69.4815 47.2387 69.9002 47.5907 70.4193C47.9458 70.9296 48.006 71.5194 47.7712 72.1888C47.6106 72.6468 47.3394 72.9968 46.9578 73.2387C46.5762 73.4807 46.1354 73.6377 45.6354 73.7096C45.9656 73.9243 46.2363 74.1676 46.4476 74.4395C46.6676 74.7145 46.815 75.0135 46.8896 75.3364C46.9674 75.6505 46.9444 75.9837 46.8209 76.336C46.6355 76.8644 46.328 77.2758 45.8983 77.5702C45.4775 77.8677 44.973 78.0369 44.385 78.0779C43.7969 78.1189 43.1594 78.0189 42.4725 77.7779C42.3491 77.7347 42.2025 77.6734 42.0326 77.594C41.8683 77.5264 41.6968 77.4514 41.518 77.369C41.3481 77.2896 41.1781 77.2101 41.0081 77.1307C40.8439 77.0632 40.6957 77.0063 40.5636 76.96ZM42.7509 73.5582L42.0122 75.4949C41.9134 75.7767 41.9392 76.0133 42.0897 76.2045C42.2433 76.387 42.5447 76.557 42.9938 76.7146C43.4342 76.869 43.8134 76.8735 44.1315 76.7279C44.4616 76.5766 44.7007 76.2896 44.849 75.8669C45.1116 75.1182 44.8233 74.488 43.9841 73.976L42.7509 73.5582ZM43.1805 72.4182C43.1805 72.4182 43.2318 72.4411 43.3344 72.487C43.437 72.5329 43.5585 72.5953 43.699 72.6742C43.8425 72.7443 43.9788 72.807 44.1078 72.8621C44.2456 72.9204 44.3454 72.9603 44.407 72.9819C44.407 72.9819 44.4588 72.9754 44.5623 72.9622C44.6746 72.9522 44.811 72.9159 44.9714 72.8535C45.1348 72.7822 45.2915 72.674 45.4413 72.5288C45.6031 72.3778 45.7334 72.1614 45.8323 71.8796C45.9898 71.4304 45.956 71.0476 45.7307 70.7312C45.5054 70.4148 45.0756 70.1453 44.4415 69.9229C44.3535 69.892 44.2856 69.888 44.238 69.9109C44.2024 69.928 44.1616 69.9879 44.1157 70.0905C44.0147 70.3221 43.9028 70.5846 43.7802 70.8778C43.6694 71.1654 43.5617 71.4441 43.4572 71.714C43.3526 71.984 43.2604 72.2187 43.1805 72.4182ZM47.2227 78.4502C47.4931 78.5253 47.6939 78.5166 47.8253 78.4242C47.9654 78.3349 48.0957 78.1185 48.2162 77.775L49.1384 75.146C49.2434 74.8466 49.2748 74.6301 49.2327 74.4966C49.1936 74.3543 49.0639 74.2446 48.8437 74.1673C48.7909 74.1488 48.7321 74.1331 48.6674 74.1203C48.6145 74.1018 48.5881 74.0925 48.5881 74.0925L48.5545 73.9769L48.8654 73.3441C49.2658 73.4153 49.6589 73.479 50.0447 73.5352C50.4305 73.5914 50.75 73.6392 51.0032 73.6786C51.2684 73.7123 51.401 73.7291 51.401 73.7291L51.4781 73.8897C51.4781 73.8897 51.4418 73.9511 51.369 74.074C51.3081 74.1911 51.2349 74.3434 51.1493 74.531C51.0668 74.7098 50.9872 74.8945 50.9104 75.0852L50.9712 75.1658C51.3982 74.8507 51.8148 74.6359 52.221 74.5212C52.6272 74.4065 52.98 74.4017 53.2794 74.5067C53.4204 74.5562 53.5274 74.6036 53.6004 74.649C53.6854 74.6887 53.7279 74.7086 53.7279 74.7086L53.7437 74.8328C53.7437 74.8328 53.7042 74.903 53.6253 75.0435C53.5582 75.1782 53.4654 75.3583 53.3467 75.5837C53.2369 75.8123 53.1149 76.0612 52.9809 76.3307C52.8556 76.6033 52.7422 76.8701 52.6407 77.1313L51.7767 76.8875C51.925 76.4648 51.9959 76.1781 51.9894 76.0274C51.9947 75.8711 51.9226 75.7666 51.7729 75.7141C51.6319 75.6647 51.4637 75.665 51.2681 75.7151C51.0725 75.7652 50.8718 75.858 50.666 75.9935C50.666 75.9935 50.6338 76.0712 50.5694 76.2266C50.508 76.3733 50.4269 76.5624 50.3258 76.794C50.2336 77.0287 50.1398 77.2678 50.0445 77.5113C49.9492 77.7548 49.8647 77.9675 49.791 78.1494C49.7174 78.3313 49.6712 78.4486 49.6527 78.5014C49.5724 78.7304 49.552 78.9013 49.5916 79.0141C49.6399 79.13 49.761 79.2219 49.9548 79.2899C50.0781 79.3331 50.2205 79.3782 50.3821 79.425C50.5469 79.463 50.6292 79.4819 50.6292 79.4819L50.641 79.5751L50.1899 80.3961C50.1899 80.3961 50.1342 80.3716 50.0228 80.3226C49.9114 80.2736 49.7647 80.2123 49.5829 80.1386C49.4067 80.0768 49.2233 80.0075 49.0326 79.9308C48.8389 79.8628 48.6627 79.801 48.5042 79.7454C48.24 79.6527 47.9786 79.566 47.7201 79.4852C47.4616 79.4044 47.2472 79.3391 47.0768 79.2892C46.9151 79.2424 46.8343 79.219 46.8343 79.219L47.2227 78.4502ZM52.1144 81.175L52.512 80.3798C52.7829 80.4253 52.9987 80.4021 53.1595 80.3102C53.3292 80.2213 53.4557 80.058 53.5391 79.8202L54.5401 76.9667C54.639 76.6849 54.6673 76.4772 54.6251 76.3437C54.5829 76.2102 54.4561 76.1064 54.2448 76.0323C54.1919 76.0137 54.1228 75.9994 54.0373 75.9892C53.9638 75.9733 53.927 75.9653 53.927 75.9653L54.2704 75.2401C54.5853 75.3011 54.8958 75.3606 55.2019 75.4185C55.5199 75.4707 55.8055 75.5165 56.0587 75.5558C56.3239 75.5895 56.5315 75.6178 56.6817 75.6408C56.8407 75.6669 56.9202 75.68 56.9202 75.68L56.9649 75.9331C56.8869 76.0145 56.7765 76.1884 56.6336 76.4548C56.5026 76.7155 56.3512 77.0481 56.1796 77.4528C56.0111 77.8487 55.8253 78.3077 55.6224 78.83C55.4225 79.3434 55.2206 79.8908 55.0167 80.472C54.9456 80.6746 54.9239 80.8351 54.9516 80.9537C54.9823 81.0634 55.0726 81.1445 55.2223 81.197C55.2928 81.2217 55.3736 81.2451 55.4647 81.2672C55.5647 81.2924 55.6147 81.3049 55.6147 81.3049L55.6311 81.3849L55.2164 82.1444C55.2164 82.1444 55.1695 82.123 55.0757 82.0802C54.9788 82.0463 54.8526 81.9971 54.6972 81.9326C54.5475 81.8801 54.3905 81.8201 54.2262 81.7526C54.0677 81.697 53.918 81.6445 53.7771 81.595C53.5657 81.5209 53.3277 81.4522 53.063 81.3891C52.8071 81.329 52.5836 81.2753 52.3925 81.228C52.2071 81.1927 52.1144 81.175 52.1144 81.175ZM56.2486 74.1685C55.9492 74.0635 55.7496 73.8995 55.6497 73.6765C55.5618 73.4479 55.5657 73.197 55.6615 72.924C55.7696 72.6157 55.9545 72.3987 56.2163 72.2729C56.4811 72.1383 56.7676 72.1251 57.0759 72.2332C57.3665 72.3352 57.5558 72.5005 57.6437 72.7291C57.7405 72.9609 57.741 73.2133 57.6452 73.4863C57.5371 73.7946 57.3565 74.0131 57.1036 74.142C56.8507 74.2709 56.5657 74.2797 56.2486 74.1685ZM57.4642 86.4788C56.9975 86.3151 56.6157 86.0922 56.319 85.8101C56.0281 85.5399 55.8352 85.2299 55.7403 84.8801C55.6423 84.5391 55.6597 84.1792 55.7925 83.8005C55.9384 83.7231 56.1611 83.638 56.4607 83.5453C56.7691 83.4556 57.0995 83.3737 57.4519 83.2995L57.4844 83.2071C57.0863 82.9883 56.813 82.7243 56.6643 82.415C56.5187 82.0968 56.4961 81.7526 56.5963 81.3822C56.8105 81.2793 57.0319 81.1839 57.2605 81.096C57.498 81.0111 57.7412 80.9382 57.9901 80.8771L58.0828 80.6129L58.8884 81.1922C58.6514 81.2476 58.4675 81.3067 58.3366 81.3696C58.2146 81.4356 58.1365 81.517 58.1026 81.6139C58.047 81.7724 58.1125 81.924 58.2991 82.0686C58.4946 82.2163 58.7535 82.3664 59.0758 82.5191C59.4069 82.6748 59.7541 82.8411 60.1174 83.0179C60.4806 83.1948 60.8126 83.3904 61.1133 83.6047C61.414 83.819 61.636 84.0601 61.7795 84.328C61.9317 84.5989 61.9475 84.9062 61.827 85.2497C61.7189 85.5579 61.517 85.8234 61.2213 86.046C60.9225 86.2775 60.5656 86.4491 60.1506 86.5606C59.7413 86.6841 59.3021 86.7378 58.833 86.7216C58.3697 86.7173 57.9134 86.6364 57.4642 86.4788ZM58.3092 85.6773C58.5998 85.7793 58.8751 85.8264 59.1349 85.8186C59.3917 85.8197 59.6124 85.7685 59.7971 85.6652C59.9905 85.5649 60.1197 85.4222 60.1845 85.2373C60.234 85.0964 60.2169 84.9618 60.1333 84.8336C60.0554 84.7172 59.8703 84.5682 59.578 84.3865C59.2856 84.2049 58.8407 83.9647 58.2432 83.6661C58.0352 83.7514 57.8579 83.8623 57.7111 83.9987C57.5643 84.1352 57.4631 84.2827 57.4075 84.4412C57.3179 84.6966 57.3497 84.9303 57.5028 85.1423C57.6617 85.3661 57.9305 85.5445 58.3092 85.6773ZM59.9425 80.8943C60.2595 81.0056 60.5403 80.9804 60.7849 80.8189C61.0383 80.6605 61.2376 80.3744 61.3828 79.9604C61.5434 79.5025 61.5673 79.1103 61.4543 78.7838C61.3413 78.4573 61.1087 78.2323 60.7564 78.1087C60.4393 77.9975 60.1585 78.0226 59.914 78.1841C59.6694 78.3456 59.4729 78.6377 59.3247 79.0605C59.1671 79.5096 59.1404 79.8959 59.2446 80.2193C59.3575 80.5457 59.5902 80.7708 59.9425 80.8943ZM59.3988 81.6828C58.8968 81.5067 58.4873 81.2642 58.1704 80.9552C57.8566 80.6374 57.6496 80.2829 57.5494 79.8917C57.4612 79.4948 57.4912 79.0849 57.6395 78.6622C57.8032 78.1954 58.0689 77.8188 58.4364 77.5323C58.804 77.2458 59.2318 77.0695 59.7199 77.0033C60.208 76.9371 60.7118 76.9952 61.2314 77.1775C61.5133 77.2763 61.7521 77.3848 61.9481 77.503C62.144 77.6212 62.3432 77.7158 62.5458 77.7869C62.7281 77.8311 63.0005 77.8722 63.363 77.9103C63.7255 77.9485 64.1206 77.9783 64.5482 77.9997L64.609 78.0804L64.0804 79.0373C63.9069 78.9963 63.729 78.9536 63.5466 78.9095C63.3674 78.8565 63.2102 78.8112 63.075 78.7737L62.9943 78.8344C63.2169 79.3279 63.2401 79.8256 63.064 80.3276C62.9064 80.7768 62.6426 81.1343 62.2724 81.4001C61.9022 81.6659 61.4643 81.8287 60.9586 81.8887C60.4648 81.943 59.9449 81.8744 59.3988 81.6828ZM63.0128 83.9743C63.2598 84.0312 63.4444 84.0268 63.5664 83.9608C63.6916 83.886 63.7974 83.7253 63.8839 83.4787L66.1361 77.0582C66.235 76.7764 66.2633 76.5687 66.2211 76.4353C66.1789 76.3018 66.0521 76.1979 65.8408 76.1238L65.5369 76.0172L65.5026 75.9458L65.8228 75.2867C66.0906 75.341 66.3907 75.4018 66.7233 75.469C67.0677 75.5305 67.4077 75.5904 67.7433 75.6488C68.0877 75.7102 68.3865 75.7606 68.6397 75.8L68.6441 76.0835C68.5697 76.1266 68.4396 76.3282 68.2539 76.6884C68.077 77.0517 67.8582 77.5486 67.5975 78.1791C67.3398 78.8009 67.0464 79.5387 66.7172 80.3925C66.8837 80.3125 67.0694 80.2342 67.2743 80.1577C67.488 80.0843 67.6986 80.0197 67.9061 79.9639C68.1224 79.9112 68.3134 79.8743 68.479 79.8533C68.6534 79.8354 68.7891 79.8434 68.886 79.8774C69.5201 80.0998 69.9564 80.421 70.1948 80.8409C70.4363 81.2521 70.4613 81.7306 70.2698 82.2767C70.2234 82.4088 70.1392 82.6067 70.017 82.8705C69.8948 83.1342 69.7589 83.4229 69.6094 83.7364C69.4686 84.053 69.3341 84.352 69.2057 84.6333C69.0774 84.9147 68.9838 85.1391 68.9251 85.3064C68.8479 85.5266 68.8216 85.7003 68.8461 85.8276C68.8738 85.9461 68.9669 86.0332 69.1254 86.0888C69.1695 86.1042 69.2311 86.1259 69.3104 86.1537C69.4015 86.1758 69.4751 86.1917 69.531 86.2014L69.5389 86.2635L69.1373 87.0277C68.9378 86.9478 68.6987 86.854 68.42 86.7464C68.1413 86.6387 67.9094 86.5524 67.7245 86.4875C67.6188 86.4505 67.4807 86.407 67.3103 86.3571C67.1399 86.3072 66.9606 86.2542 66.7726 86.1982C66.5815 86.1509 66.3976 86.1111 66.221 86.0788L66.5744 85.2829C66.81 85.3161 66.9963 85.2925 67.1334 85.212C67.2735 85.1227 67.3806 84.9723 67.4548 84.7609L68.3093 82.494C68.4541 82.1096 68.484 81.7986 68.3992 81.5612C68.3262 81.318 68.1444 81.1454 67.8538 81.0435C67.6953 80.9878 67.483 80.9727 67.2169 80.9981C66.9627 81.0177 66.7006 81.0741 66.4306 81.1673C66.3322 81.4197 66.2307 81.6808 66.1261 81.9507C66.0303 82.2237 65.9222 82.532 65.8017 82.8755C65.6812 83.219 65.5391 83.6241 65.3754 84.0909C65.2981 84.311 65.2749 84.476 65.3056 84.5857C65.3364 84.6954 65.4222 84.7749 65.5631 84.8244C65.6072 84.8398 65.66 84.8584 65.7217 84.88C65.7952 84.8959 65.8584 84.9131 65.9113 84.9317L65.9145 85.007L65.5044 85.7533C65.3137 85.6765 65.079 85.5843 64.8002 85.4766C64.5215 85.3689 64.2853 85.2811 64.0915 85.2132C63.8977 85.1452 63.6584 85.0662 63.3735 84.9761C63.0974 84.8892 62.8433 84.8099 62.6112 84.7384L63.0128 83.9743ZM72.2394 88.2493C71.6141 88.03 71.2024 87.7372 71.0045 87.3711C70.8065 87.0049 70.8049 86.5444 70.9995 85.9895L72.0329 83.0435C72.1287 82.7705 72.1451 82.5686 72.0822 82.4377C72.0193 82.3068 71.8485 82.1876 71.5698 82.0799L71.4701 81.9411L71.7896 81.3262C72.1178 81.2929 72.4418 81.2434 72.7616 81.1776C73.0845 81.1029 73.372 81.0306 73.624 80.9608C73.8879 80.8852 74.0969 80.825 74.2511 80.7802C74.4084 80.7266 74.4871 80.6997 74.4871 80.6997L74.7921 81.0145C74.7921 81.0145 74.7389 81.1096 74.6327 81.2998C74.5383 81.4843 74.4101 81.7509 74.2482 82.0996L75.821 82.6068L75.8507 82.6914L75.4081 83.5302L73.8631 82.9437C73.7038 83.3132 73.5304 83.737 73.3429 84.2152C73.1673 84.6877 72.9775 85.2146 72.7736 85.7959C72.6408 86.1746 72.611 86.4708 72.6845 86.6844C72.7579 86.8981 72.9443 87.0575 73.2437 87.1625C73.4375 87.2305 73.6289 87.263 73.8178 87.26C74.0068 87.2571 74.1013 87.2556 74.1013 87.2556L74.1247 87.7386C74.1247 87.7386 74.0445 87.7698 73.8841 87.8323C73.7326 87.8978 73.544 87.9701 73.3184 88.0492C73.1048 88.1226 72.8957 88.1828 72.6913 88.2298C72.4869 88.2768 72.3363 88.2833 72.2394 88.2493ZM76.4241 86.2604L76.2776 86.0013L78.0239 80.2194L78.2612 80.0504L80.0759 80.3754L80.2085 80.6742L77.2941 86.4024L76.4241 86.2604ZM75.5471 89.3948C75.2301 89.2836 75.0203 89.1061 74.9178 88.8625C74.8242 88.6219 74.8268 88.3607 74.9257 88.0789C75.0369 87.7618 75.2189 87.5389 75.4719 87.41C75.7367 87.2754 76.032 87.2653 76.3579 87.3796C76.6661 87.4877 76.8715 87.6636 76.9739 87.9072C77.0795 88.1421 77.0813 88.4048 76.9793 88.6955C76.8712 89.0037 76.6847 89.2251 76.4199 89.3597C76.1639 89.4974 75.873 89.5091 75.5471 89.3948Z" fill="white"/>
<path d="M82.831 62.4079C81.9899 62.8044 80.9719 62.4472 80.5628 61.6122V61.6122C80.3704 61.2195 80.0294 60.9144 79.6168 60.7697V60.7697C78.7491 60.4653 78.2924 59.5151 78.5968 58.6474V58.6474C78.7415 58.2348 78.7163 57.7779 78.5299 57.3824V57.3824C78.1334 56.5413 78.4905 55.5232 79.3255 55.1141V55.1141C79.7182 54.9218 80.0233 54.5808 80.168 54.1682V54.1682C80.4724 53.3005 81.4226 52.8438 82.2903 53.1482V53.1482C82.7029 53.2929 83.1598 53.2677 83.5553 53.0812V53.0812C84.3964 52.6847 85.4145 53.0418 85.8236 53.8769V53.8769C86.0159 54.2695 86.3569 54.5747 86.7695 54.7194V54.7194C87.6372 55.0238 88.0939 55.9739 87.7895 56.8417V56.8417C87.6448 57.2543 87.67 57.7112 87.8565 58.1067V58.1067C88.253 58.9478 87.8959 59.9658 87.0608 60.3749V60.3749C86.6682 60.5673 86.363 60.9083 86.2183 61.3209V61.3209C85.9139 62.1886 84.9638 62.6453 84.096 62.3409V62.3409C83.6835 62.1962 83.2265 62.2214 82.831 62.4079V62.4079Z" fill="white"/>
<path d="M82.831 62.4079C81.9899 62.8044 80.9719 62.4472 80.5628 61.6122V61.6122C80.3704 61.2195 80.0294 60.9144 79.6168 60.7697V60.7697C78.7491 60.4653 78.2924 59.5151 78.5968 58.6474V58.6474C78.7415 58.2348 78.7163 57.7779 78.5299 57.3824V57.3824C78.1334 56.5413 78.4905 55.5232 79.3255 55.1141V55.1141C79.7182 54.9218 80.0233 54.5808 80.168 54.1682V54.1682C80.4724 53.3005 81.4226 52.8438 82.2903 53.1482V53.1482C82.7029 53.2929 83.1598 53.2677 83.5553 53.0812V53.0812C84.3964 52.6847 85.4145 53.0418 85.8236 53.8769V53.8769C86.0159 54.2695 86.3569 54.5747 86.7695 54.7194V54.7194C87.6372 55.0238 88.0939 55.9739 87.7895 56.8417V56.8417C87.6448 57.2543 87.67 57.7112 87.8565 58.1067V58.1067C88.253 58.9478 87.8959 59.9658 87.0608 60.3749V60.3749C86.6682 60.5673 86.363 60.9083 86.2183 61.3209V61.3209C85.9139 62.1886 84.9638 62.6453 84.096 62.3409V62.3409C83.6835 62.1962 83.2265 62.2214 82.831 62.4079V62.4079Z" fill="white"/>
<defs>
<linearGradient id="paint0_linear_9_56" x1="64.5" y1="92.75" x2="64.5" y2="119.75" gradientUnits="userSpaceOnUse">
<stop stop-color="#F6BC00"/>
<stop offset="0.802793" stop-color="#F3B94D"/>
</linearGradient>
</defs>
</svg>
